<?xml version="1.0" encoding="utf-8"?>
<!-- Generator: Adobe Illustrator 19.0.1, SVG Export Plug-In . SVG Version: 6.00 Build 0)  -->
<svg version="1.1" xmlns="http://www.w3.org/2000/svg" xmlns:xlink="http://www.w3.org/1999/xlink" x="0px" y="0px"
	 viewBox="57 26 255 92" style="enable-background:new 57 26 255 92;" xml:space="preserve">
<style type="text/css">
	.st0{display:none;}
	.st1{display:inline;fill:#681616;}
	.st2{fill-rule:evenodd;clip-rule:evenodd;fill:url(#SVGID_1_);}
	.st3{fill:url(#SVGID_2_);}
	.st4{fill:url(#SVGID_3_);}
	.st5{fill:url(#SVGID_4_);}
	.st6{fill:url(#SVGID_5_);}
	.st7{fill:url(#SVGID_6_);}
	.st8{fill:url(#SVGID_7_);}
	.st9{fill:url(#SVGID_8_);}
	.st10{fill:url(#SVGID_9_);}
	.st11{fill:url(#SVGID_10_);}
	.st12{fill:url(#SVGID_11_);}
	.st13{fill:url(#SVGID_12_);}
	.st14{filter:url(#Adobe_OpacityMaskFilter);}
	.st15{opacity:0.3;mask:url(#SVGID_13_);}
	.st16{fill:#221F20;}
	.st17{fill:url(#SVGID_14_);}
	.st18{filter:url(#Adobe_OpacityMaskFilter_1_);}
	.st19{opacity:0.3;mask:url(#SVGID_15_);}
	.st20{fill:url(#SVGID_16_);}
	.st21{fill:url(#SVGID_17_);}
</style>
<g id="Layer_1" class="st0">
	<path class="st1" d="M179.7,89.1c-0.6,0.5-1.1,1-1.8,1.5c-3.3,2.1-6.6,4.2-9.9,6.3c-1.2,0.8-2.3,1.6-3.5,2.5c-1,0.7-1,1.1,0,1.8
		c2.1,1.5,4.2,3,6.4,4.5c2.9,1.9,5.9,3.8,8.8,5.7c0.3,0.2,0.5,0.6,0.7,0.8c-0.3,0.2-0.6,0.5-1,0.5c-1.4,0.1-2.8,0.1-4.3,0.1
		c-1.4,0-2.6-0.7-3.8-1.5c-3.4-2.3-6.9-4.5-10.4-6.8c-1.7-1.1-3.4-1.1-5,0c-3.2,2-6.3,3.9-9.5,5.9c-0.8,0.5-1.6,1-2.3,1.5
		c-1,0.8-2.2,1-3.5,1.1c-1,0-2.1-0.1-3.1-0.2c-0.2,0-0.4-0.1-0.5-0.2c-0.5-0.4-0.5-0.7,0-1c1.9-1.2,3.7-2.2,5.6-3.4
		c3.1-2,6.1-4.1,9.2-6.2c0.3-0.2,0.6-0.5,0.9-0.7c0.7-0.7,0.7-0.9,0-1.5c-1-0.8-2.1-1.6-3.2-2.4c-3.4-2.2-6.9-4.4-10.3-6.6
		c-0.3-0.2-0.6-0.4-0.8-0.6c-0.5-0.4-0.5-0.9,0.1-1.2c0.5-0.3,1-0.4,1.5-0.5c3.3-0.4,5.9,0.9,8.5,2.8c2.6,1.8,5.3,3.5,8,5.2
		c1.5,1,3,1,4.6,0c3-1.8,5.9-3.6,8.9-5.5c0.6-0.4,1.1-0.7,1.7-1.1c1.7-1.3,3.6-1.4,5.6-1.3C178.1,88.7,178.9,88.9,179.7,89.1
		C179.7,88.9,179.7,89,179.7,89.1z"/>
	<path class="st1" d="M113.2,78.5H91V36.4h22.1v2.5H93.7v17.2h15.6v2.6H93.7V76H113L113.2,78.5z M63.1,36.3c-0.3,0-0.5,0-0.8,0
		l-0.9,0.1v42.1H64V58.8h1c0.9,0,1.8,0,2.6,0c2.2,0,4.6,0,6.8,0c0.9,0,1.2,0.2,1.6,1c1.4,2.7,2.8,5.5,4.2,8.2
		c1.6,3.1,3.2,6.2,4.7,9.3c0.6,1.2,1.5,1.6,2.9,1.2l0.6-0.2l-10-19.7c0.1-0.1,0.3-0.1,0.4-0.1c5.2-1.3,8.9-5.7,8.9-10.8l0,0
		c0-0.4,0-0.9-0.1-1.3c-0.7-5.9-5.4-10-11.4-10c-3.4,0-6.8,0-10.3,0L63.1,36.3z M76.9,39c4.2,0.1,8,3.9,8.1,8.2v0.2
		c0,4.6-3.4,8.5-7.6,8.7c-3.1,0.1-6.3,0.1-9.4,0.1c-1.3,0-2.6,0-3.9,0V39h3H70C72.3,39,74.6,38.9,76.9,39z M294.1,36.3v42.1
		l-0.4,0.1c-1.8,0.5-3,0-4-1.8c-5.6-9.5-11.4-19.2-17-28.6l-4.5-7.5v37.9h-2.7V36.6l0.4-0.1c2.3-0.5,2.7-0.4,3.8,1.5
		c5.1,8.5,10.2,17.1,15.3,25.6l5.8,9.7c0.2,0.3,0.4,0.7,0.6,1v-38H294.1z M212.1,36.4v2.5h-12.8v39.6h-2.7V38.9h-12.5v-2.5H212.1z
		 M217.2,36.4v42.1h-2.6V36.4H217.2z M225.9,42.3c-4.1,4-6.3,9.3-6.3,14.9v0.1c0,12.1,9.5,21.6,21.6,21.6c5.7,0,11.1-2.2,15.3-6.2
		c4.1-4,6.4-9.3,6.5-14.9v-0.1l0,0c0-12.1-9.4-21.7-21.5-21.8C235.6,35.9,230.1,38.2,225.9,42.3z M254.7,44.2
		c3.7,3.6,5.7,8.3,5.7,13.1v0.2c-0.1,10.6-8.4,18.8-19,18.8c-5.1,0-9.9-1.9-13.5-5.4s-5.5-8.3-5.5-13.3h-0.5h0.5
		c0-10.4,8.3-18.7,18.8-18.9C246.1,38.5,251,40.6,254.7,44.2z M183.3,76.1c0,1.2-1.2,1.6-1.5,1.7c-6.9,2.3-13.9,1.2-19.5-2.9
		c-5.6-4-9.1-10.6-9.1-17.2c0-10.9,7.8-18.7,15.5-20.9c4.4-1.2,8.8-1.1,13.1,0.3c0.9,0.3,1.6,0.5,1.6,1.5c0,0.2,0,0.6-0.1,1
		l-0.1,0.6l-0.6-0.2c-10.3-3.4-18.4-0.8-24,7.8c-1.8,2.7-2.8,6-2.8,9.5c0,4,1.2,7.8,3.5,10.9c2.8,3.8,6.3,6.3,10.4,7.4
		c4.4,1.1,8.7,0.8,12.7-0.9l0.5-0.2l0.2,0.5C183.2,75.5,183.3,75.8,183.3,76.1z M148.2,36.3c-1.5-0.1-2.6,0.7-3.3,2.3
		c-0.3,0.6-0.6,1.2-1.1,1.7c-0.2,0.3-0.4,0.6-0.6,0.8l-2.9,4.6c-5.6,8.8-11.1,17.6-16.7,26.3c-0.8,1.3-1.6,2.6-2.4,3.9l-1.4,2.2
		l0.7,0.2c1.8,0.6,2.6-0.4,3.1-1.2c0.9-1.6,1.9-3.1,2.9-4.7c0.9-1.4,1.8-2.8,2.6-4.2c0.3-0.5,0.6-0.7,1.2-0.7c1.8,0,3.5,0,5.3,0
		h11.7v10.9h2.7V36.6l-0.4-0.1c-0.4-0.1-0.8-0.2-1.2-0.2H148.2z M147.3,64.9h-16l16-25.2V64.9z M301.4,36.4h-4.8v0.7h2v5.3h0.8v-5.3
		h2V36.4z M308,42.3v-5.9h-0.8l-2.2,3.9l-2.1-3.9h-0.8v5.9h0.7v-4.6l2,3.5h0.4l2-3.5v4.6H308z"/>
	<path class="st1" d="M295.8,89.3l-0.6-0.6c0-0.1-0.1-0.1-0.1-0.2c-0.2-0.2-0.4-0.6-0.8-0.7c-0.7-0.2-1.6-0.4-2.5-0.4
		c-4.8,0-9.7,0-14.4,0h-4.2h-4.3c-4.6,0-9.5,0-14.2,0c-0.9,0-1.8,0.2-2.6,0.4h-0.2c-0.6,0.1-1,0.8-1.1,1.2l0,0l0,0
		c0,0.6,0.6,1.1,1.1,1.2c0.7,0.2,1.4,0.3,2.1,0.3c1.5,0,3.1,0,4.6,0c2.5,0,5.1,0,7.6,0c0.6,0,1.2,0.2,1.9,0.4
		c0.2,0.1,0.4,0.1,0.5,0.2c0.1,0,0.2,0.1,0.2,0.5c0,3.4,0,6.8,0,10.1v4.5v4.5c0,1.5,0.4,2,1.8,2.4s2.9,0.4,4.4,0.1
		c1.9-0.4,2.3-0.9,2.3-2.8v-3.8v-3.8c0-3.7,0-7.3,0-11c0-0.4,0.1-0.5,0.3-0.6c0.9-0.4,1.6-0.6,2.4-0.6c3.9,0,7.9,0,12.2,0
		c0.6,0,1.3-0.1,1.8-0.2c0.4-0.1,0.6-0.4,0.8-0.6c0.1-0.1,0.1-0.1,0.2-0.2L295.8,89.3L295.8,89.3z M247.7,89.9c0-1-0.5-1.7-1.5-2
		c-1.7-0.5-3.4-0.6-5.1-0.2c-1.6,0.4-2,0.9-2,2.6v20.6c0,1.2,0.3,1.9,1.7,2.3c1.8,0.5,3.6,0.5,5.4-0.1c1-0.3,1.5-1,1.5-2
		c0-1.7,0-3.4,0-5.1v-2.7v-2.7v-2.7v-2.7C247.7,93,247.7,91.4,247.7,89.9L247.7,89.9L247.7,89.9L247.7,89.9z M234.8,89.5
		c0-0.7-0.6-1.3-1.4-1.5c-0.8-0.2-1.7-0.3-2.7-0.4c-9.1-0.2-16.5-0.1-23.3,0.2c-3.7,0.2-7.5,1.1-11.5,2.8c-3.2,1.3-5.5,3.6-6.8,6.8
		c-0.3,0.8-0.5,1.5-0.5,2.2c0,2,0,3.9,0,5.9v0.6v0.6c0,1.5,0,3,0,4.5c0,1,0.5,1.6,1.3,1.9c1.9,0.7,3.9,0.7,5.8,0
		c0.6-0.2,1.4-0.7,1.4-2c0-1.4,0-2.8,0-4.3v-0.7v-0.7c0-1.2,0-2.5,0-3.7l0,0c0-0.2,0-0.2,0.1-0.3c0.9-0.5,1.7-0.8,2.6-0.7
		c2.9,0,5.9,0,8.8,0h2.8c1.1,0,2.2,0,3.3,0c2.5,0,5.1,0,7.6,0c0.7,0,1.4-0.1,2.1-0.3c0.5-0.1,1-0.7,1-1.2s-0.5-1.1-1-1.2
		c-0.6-0.1-1.2-0.3-1.8-0.3c-3.7,0-7.4,0-11.2,0c-3.7,0-7.4,0-11.2,0c-0.6,0-1.1-0.1-1.6-0.2c-0.3-0.1-0.8-0.3-0.8-0.6
		c0-0.2,0.1-0.4,0.3-0.6c0.4-0.6,1-1.2,1.5-1.5c3-2,6.4-3.1,10.2-3.1c4.2,0,8.4,0,12.5,0c2.9,0,5.7,0,8.6,0c0.8,0,1.6-0.2,2.3-0.4
		c0.6-0.2,1.2-0.8,1.3-1.4C234.8,89.7,234.8,89.6,234.8,89.5L234.8,89.5z"/>
</g>
<g id="Layer_2">
	<g>
		
			<linearGradient id="SVGID_1_" gradientUnits="userSpaceOnUse" x1="203.1371" y1="91.8897" x2="233.9859" y2="91.8897" gradientTransform="matrix(0 1 -1 0 250.7031 -114.937)">
			<stop  offset="0" style="stop-color:#FFFFFF"/>
			<stop  offset="5.981540e-002" style="stop-color:#A5AAB2"/>
			<stop  offset="9.884459e-002" style="stop-color:#7C8491"/>
			<stop  offset="0.1328" style="stop-color:#5C6678"/>
			<stop  offset="0.2401" style="stop-color:#9AA4AE"/>
			<stop  offset="0.3608" style="stop-color:#E1E3E7"/>
			<stop  offset="0.4386" style="stop-color:#FFFFFF"/>
			<stop  offset="0.5349" style="stop-color:#BCC3CA"/>
			<stop  offset="0.6581" style="stop-color:#A5ADB4"/>
			<stop  offset="0.751" style="stop-color:#FFFFFF"/>
			<stop  offset="0.8457" style="stop-color:#FFFFFF"/>
			<stop  offset="0.8672" style="stop-color:#C0C3C3"/>
			<stop  offset="0.9012" style="stop-color:#C2CCD2"/>
			<stop  offset="0.9432" style="stop-color:#898F91"/>
			<stop  offset="0.9441" style="stop-color:#8C9294"/>
			<stop  offset="0.9662" style="stop-color:#C6CDD1"/>
			<stop  offset="0.9767" style="stop-color:#DDE4E9"/>
		</linearGradient>
		<path class="st2" d="M179.9,89.1c-0.6,0.5-1.1,1-1.8,1.5c-3.3,2.1-6.6,4.2-9.9,6.3c-1.2,0.8-2.3,1.6-3.5,2.5c-1,0.8-1,1.1,0,1.8
			c2.1,1.5,4.3,3,6.4,4.5c2.9,1.9,5.9,3.8,8.8,5.7c0.3,0.2,0.5,0.6,0.7,0.8c-0.3,0.2-0.6,0.5-1,0.5c-1.4,0.1-2.8,0.1-4.3,0.1
			c-1.4,0-2.6-0.7-3.8-1.5c-3.4-2.3-7-4.5-10.4-6.8c-1.7-1.1-3.4-1.1-5,0c-3.2,2-6.4,3.9-9.5,5.9c-0.8,0.5-1.6,1-2.3,1.5
			c-1,0.8-2.2,1-3.5,1.1c-1,0-2.1-0.1-3.1-0.2c-0.2,0-0.4-0.1-0.5-0.2c-0.5-0.4-0.5-0.7,0-1c1.9-1.2,3.7-2.2,5.6-3.4
			c3.1-2,6.1-4.1,9.2-6.2c0.3-0.2,0.6-0.5,0.9-0.8c0.7-0.7,0.7-0.9,0-1.5c-1-0.8-2.1-1.6-3.2-2.4c-3.4-2.2-6.9-4.4-10.3-6.6
			c-0.3-0.2-0.6-0.4-0.8-0.6c-0.5-0.4-0.5-0.9,0.1-1.2c0.5-0.3,1-0.4,1.5-0.5c3.3-0.4,5.9,0.9,8.5,2.8c2.6,1.8,5.3,3.5,8,5.2
			c1.5,1,3.1,1,4.6,0c3-1.8,5.9-3.6,8.9-5.5c0.6-0.4,1.1-0.7,1.7-1.1c1.7-1.3,3.6-1.4,5.6-1.3c0.8,0.1,1.6,0.3,2.4,0.5
			C179.9,88.9,179.9,89,179.9,89.1z"/>
		
			<linearGradient id="SVGID_2_" gradientUnits="userSpaceOnUse" x1="150.8528" y1="65.7807" x2="196.243" y2="65.7807" gradientTransform="matrix(0 1 -1 0 250.7031 -114.937)">
			<stop  offset="7.234300e-002" style="stop-color:#7EA9A9"/>
			<stop  offset="9.046000e-002" style="stop-color:#7AA4A3"/>
			<stop  offset="0.1135" style="stop-color:#6F9594"/>
			<stop  offset="0.1392" style="stop-color:#5D7C7A"/>
			<stop  offset="0.1423" style="stop-color:#5A7876"/>
			<stop  offset="0.1523" style="stop-color:#617F7C"/>
			<stop  offset="0.1672" style="stop-color:#76928B"/>
			<stop  offset="0.1842" style="stop-color:#95B0A3"/>
			<stop  offset="0.2263" style="stop-color:#70A27A"/>
			<stop  offset="0.276" style="stop-color:#466760"/>
			<stop  offset="0.4185" style="stop-color:#5C8983"/>
			<stop  offset="0.5074" style="stop-color:#80B273"/>
			<stop  offset="0.7024" style="stop-color:#D3D48B"/>
			<stop  offset="0.8349" style="stop-color:#80B273"/>
			<stop  offset="0.8612" style="stop-color:#7EAF73"/>
			<stop  offset="0.88" style="stop-color:#77A674"/>
			<stop  offset="0.8964" style="stop-color:#6B9675"/>
			<stop  offset="0.911" style="stop-color:#5B8176"/>
			<stop  offset="0.9171" style="stop-color:#71957D"/>
			<stop  offset="0.9263" style="stop-color:#8AAC85"/>
			<stop  offset="0.9366" style="stop-color:#9EBE8C"/>
			<stop  offset="0.9484" style="stop-color:#ABCB91"/>
			<stop  offset="0.963" style="stop-color:#B4D393"/>
			<stop  offset="0.9887" style="stop-color:#B6D594"/>
		</linearGradient>
		<path class="st3" d="M113.3,78.5H91.1V36.3h22.1v2.5H93.9v17.2h15.6v2.6H93.9V76h19.3L113.3,78.5z M63.1,36.3c-0.3,0-0.5,0-0.8,0
			l-0.9,0.1v42.1h2.6V58.8h1c0.9,0,1.8,0,2.6,0c2.2,0,4.6,0,6.8,0c0.9,0,1.2,0.2,1.6,1c1.4,2.8,2.8,5.5,4.2,8.2
			c1.6,3.1,3.2,6.2,4.7,9.3c0.6,1.2,1.5,1.6,2.9,1.2l0.6-0.2L78.5,58.6c0.1-0.1,0.3-0.1,0.4-0.1c5.2-1.3,8.9-5.7,8.9-10.9l0,0
			c0-0.4,0-0.9-0.1-1.3c-0.7-5.9-5.4-10-11.4-10c-3.4,0-6.8,0-10.3,0L63.1,36.3z M77,38.9c4.2,0.1,8,3.9,8.1,8.2v0.2
			c0,4.6-3.4,8.5-7.6,8.7c-3.1,0.1-6.3,0.1-9.4,0.1c-1.3,0-2.6,0-3.9,0V38.9l3,0l2.9,0C72.4,38.9,74.7,38.9,77,38.9z M294.4,36.2
			v42.1l-0.4,0.1c-1.8,0.5-3,0-4-1.8c-5.6-9.6-11.4-19.2-17-28.6l-4.5-7.5v38h-2.7v-42l0.4-0.1c2.3-0.5,2.7-0.4,3.8,1.5
			c5.1,8.5,10.2,17.1,15.3,25.6l5.8,9.8c0.2,0.3,0.4,0.7,0.6,1v-38L294.4,36.2z M212.4,36.3v2.5h-12.8v39.6h-2.7V38.9h-12.5v-2.5
			H212.4z M217.4,36.4v42.2h-2.6V36.4H217.4z M226.2,42.3c-4.1,4-6.3,9.3-6.3,14.9v0.1c0,12.1,9.5,21.6,21.6,21.7
			c5.7,0,11.2-2.2,15.3-6.2c4.2-4,6.4-9.3,6.5-14.9v-0.1c0,0,0,0,0,0c0-12.1-9.4-21.7-21.5-21.8C235.9,35.9,230.4,38.1,226.2,42.3z
			 M254.9,44.1c3.7,3.6,5.7,8.3,5.7,13.2v0.2c-0.1,10.6-8.4,18.8-19,18.9c-5.1,0-9.9-1.9-13.5-5.5c-3.6-3.5-5.5-8.3-5.5-13.4l-0.5,0
			h0.5c0-10.4,8.3-18.7,18.9-18.9C246.3,38.5,251.3,40.5,254.9,44.1z M183.5,76.1c0,1.2-1.2,1.6-1.5,1.7c-6.9,2.3-13.9,1.2-19.6-2.9
			c-5.6-4-9.1-10.6-9.1-17.2c0-10.9,7.8-18.8,15.5-20.9c4.4-1.2,8.8-1.1,13.1,0.3c0.9,0.3,1.6,0.5,1.6,1.5c0,0.2,0,0.6-0.1,1
			l-0.1,0.6l-0.6-0.2c-10.3-3.4-18.4-0.8-24,7.8c-1.8,2.7-2.8,6-2.8,9.5c0,4,1.2,7.8,3.5,10.9c2.8,3.8,6.3,6.3,10.4,7.4
			c4.4,1.1,8.7,0.8,12.7-0.9l0.5-0.2l0.2,0.5C183.4,75.4,183.5,75.8,183.5,76.1z M148.4,36.2c-1.5-0.1-2.6,0.7-3.3,2.3
			c-0.3,0.6-0.6,1.2-1.1,1.7c-0.2,0.3-0.4,0.6-0.6,0.9l-2.9,4.6c-5.6,8.8-11.1,17.6-16.7,26.4c-0.8,1.3-1.6,2.6-2.5,3.9l-1.4,2.2
			l0.7,0.2c1.8,0.6,2.6-0.4,3.1-1.2c0.9-1.6,1.9-3.1,2.9-4.7c0.9-1.4,1.8-2.8,2.6-4.2c0.3-0.5,0.6-0.7,1.2-0.7c1.8,0,3.5,0,5.3,0
			h11.8v10.9h2.6v-42l-0.4-0.1c-0.4-0.1-0.8-0.2-1.2-0.2L148.4,36.2z M147.5,64.9h-16l16-25.2V64.9z M301.7,36.4h-4.8V37h2v5.3h0.8
			V37h2V36.4z M308.4,42.3v-5.9h-0.8l-2.2,3.9l-2.1-3.9h-0.8v5.9h0.8v-4.6l2,3.5h0.4l2-3.5v4.6H308.4z"/>
		
			<linearGradient id="SVGID_3_" gradientUnits="userSpaceOnUse" x1="202.3843" y1="8.2188" x2="228.6321" y2="8.2188" gradientTransform="matrix(0 1 -1 0 250.7031 -114.937)">
			<stop  offset="0" style="stop-color:#389AD5"/>
			<stop  offset="0.2356" style="stop-color:#363D77"/>
			<stop  offset="0.4293" style="stop-color:#389AD5"/>
			<stop  offset="0.644" style="stop-color:#7DC6EE"/>
			<stop  offset="0.8063" style="stop-color:#7FAFD8"/>
			<stop  offset="0.8953" style="stop-color:#8ABAD6"/>
		</linearGradient>
		<path class="st4" d="M296.1,89.3l-0.6-0.6c0-0.1-0.1-0.1-0.1-0.2c-0.2-0.2-0.4-0.6-0.8-0.7c-0.7-0.2-1.6-0.4-2.5-0.4
			c-4.8,0-9.7,0-14.4,0l-4.2,0l-4.3,0c-4.7,0-9.5,0-14.2,0c-0.9,0-1.8,0.2-2.6,0.4l-0.2,0c-0.6,0.1-1,0.8-1.1,1.2l0,0l0,0
			c0,0.6,0.6,1.1,1.1,1.2c0.7,0.2,1.4,0.3,2.1,0.3c1.5,0,3.1,0,4.6,0c2.5,0,5.1,0,7.6,0c0.6,0,1.2,0.2,1.9,0.4
			c0.2,0.1,0.4,0.1,0.5,0.2c0.1,0,0.2,0.1,0.2,0.5c0,3.4,0,6.8,0,10.1l0,4.5l0,4.5c0,1.5,0.4,2,1.8,2.4c1.4,0.4,2.9,0.4,4.4,0.1
			c1.9-0.4,2.3-0.9,2.3-2.8l0-3.8l0-3.8c0-3.7,0-7.3,0-11c0-0.4,0.1-0.5,0.3-0.6c0.9-0.4,1.6-0.6,2.4-0.6c3.9,0,7.9,0,12.2,0
			c0.6,0,1.3-0.1,1.8-0.2c0.4-0.1,0.6-0.4,0.9-0.6c0.1-0.1,0.1-0.1,0.2-0.2L296.1,89.3L296.1,89.3z M248,89.9c0-1-0.5-1.7-1.5-2
			c-1.7-0.5-3.4-0.6-5.1-0.2c-1.6,0.4-2,0.9-2,2.6v20.6c0,1.2,0.3,2,1.7,2.3c1.8,0.5,3.6,0.5,5.4-0.1c1-0.3,1.5-1,1.5-2
			c0-1.7,0-3.4,0-5.1l0-2.7l0-2.7l0-2.7l0-2.7C247.9,93,248,91.4,248,89.9L248,89.9L248,89.9L248,89.9z M235.1,89.5
			c0-0.7-0.6-1.3-1.4-1.5c-0.8-0.2-1.7-0.3-2.7-0.4c-9.1-0.2-16.5-0.1-23.3,0.2c-3.7,0.2-7.5,1.1-11.5,2.8c-3.2,1.3-5.5,3.6-6.8,6.8
			c-0.3,0.8-0.5,1.5-0.5,2.2c0,2,0,3.9,0,5.9v0.6v0.6c0,1.5,0,3,0,4.5c0,1,0.5,1.6,1.3,1.9c1.9,0.7,3.9,0.7,5.8,0
			c0.6-0.2,1.4-0.7,1.4-2c0-1.4,0-2.9,0-4.3v-0.7l0-0.7c0-1.2,0-2.5,0-3.7c0,0,0,0,0,0c0-0.2,0-0.2,0.1-0.3c0.9-0.5,1.7-0.8,2.6-0.7
			c2.9,0,5.9,0,8.8,0l2.8,0c1.1,0,2.2,0,3.3,0c2.5,0,5.1,0,7.6,0c0.7,0,1.4-0.1,2.1-0.3c0.5-0.1,1-0.7,1-1.2c0-0.5-0.5-1.1-1-1.2
			c-0.6-0.1-1.2-0.3-1.8-0.3c-3.7,0-7.5,0-11.2,0c-3.7,0-7.4,0-11.2,0c-0.6,0-1.1-0.1-1.6-0.2c-0.3-0.1-0.8-0.3-0.8-0.6
			c0-0.2,0.1-0.4,0.3-0.6c0.4-0.6,1-1.2,1.5-1.5c3-2,6.4-3.1,10.2-3.1c4.2,0,8.4,0,12.5,0c2.9,0,5.7,0,8.6,0c0.8,0,1.6-0.2,2.3-0.4
			c0.6-0.2,1.2-0.8,1.3-1.5C235.1,89.7,235.1,89.6,235.1,89.5L235.1,89.5z"/>
		
			<radialGradient id="SVGID_4_" cx="191.6989" cy="-45.435" r="15.8623" gradientTransform="matrix(0 0.7182 -1 0 250.7031 -78.6914)" gradientUnits="userSpaceOnUse">
			<stop  offset="0" style="stop-color:#FFFFFF"/>
			<stop  offset="0.2309" style="stop-color:#FCFDF8;stop-opacity:0.7455"/>
			<stop  offset="0.9074" style="stop-color:#F5F7E8;stop-opacity:0"/>
		</radialGradient>
		<ellipse class="st5" cx="296.1" cy="59" rx="15.9" ry="11.4"/>
		
			<radialGradient id="SVGID_5_" cx="277.7523" cy="-13.7114" r="15.8624" gradientTransform="matrix(0 0.4771 -1 0 250.7031 -27.372)" gradientUnits="userSpaceOnUse">
			<stop  offset="0" style="stop-color:#FFFFFF"/>
			<stop  offset="0.2309" style="stop-color:#FCFDF8;stop-opacity:0.7455"/>
			<stop  offset="0.9074" style="stop-color:#F5F7E8;stop-opacity:0"/>
		</radialGradient>
		<ellipse class="st6" cx="264.4" cy="105.1" rx="15.9" ry="7.6"/>
		
			<radialGradient id="SVGID_6_" cx="277.7523" cy="50.6507" r="15.8625" gradientTransform="matrix(0 0.4771 -1 0 250.7031 -27.372)" gradientUnits="userSpaceOnUse">
			<stop  offset="0" style="stop-color:#FFFFFF"/>
			<stop  offset="0.2309" style="stop-color:#FCFDF8;stop-opacity:0.7455"/>
			<stop  offset="0.9074" style="stop-color:#F5F7E8;stop-opacity:0"/>
		</radialGradient>
		<ellipse class="st7" cx="200.1" cy="105.1" rx="15.9" ry="7.6"/>
		
			<radialGradient id="SVGID_7_" cx="191.6989" cy="119.1283" r="15.862" gradientTransform="matrix(0 0.7182 -1 0 250.7031 -78.6914)" gradientUnits="userSpaceOnUse">
			<stop  offset="0" style="stop-color:#FFFFFF"/>
			<stop  offset="0.2309" style="stop-color:#FCFDF8;stop-opacity:0.7455"/>
			<stop  offset="0.9074" style="stop-color:#F5F7E8;stop-opacity:0"/>
		</radialGradient>
		<ellipse class="st8" cx="131.6" cy="59" rx="15.9" ry="11.4"/>
		
			<radialGradient id="SVGID_8_" cx="287.7556" cy="143.036" r="15.8624" gradientTransform="matrix(0 0.2799 -1 0 250.7031 -21.556)" gradientUnits="userSpaceOnUse">
			<stop  offset="0" style="stop-color:#FFFFFF"/>
			<stop  offset="0.2309" style="stop-color:#FCFDF8;stop-opacity:0.7455"/>
			<stop  offset="0.9074" style="stop-color:#F5F7E8;stop-opacity:0"/>
		</radialGradient>
		<ellipse class="st9" cx="107.7" cy="59" rx="15.9" ry="4.4"/>
		
			<radialGradient id="SVGID_9_" cx="287.7556" cy="178.41" r="12.5407" gradientTransform="matrix(0 0.2799 -1 0 250.7031 -21.556)" gradientUnits="userSpaceOnUse">
			<stop  offset="0" style="stop-color:#FFFFFF"/>
			<stop  offset="0.2309" style="stop-color:#FCFDF8;stop-opacity:0.7455"/>
			<stop  offset="0.9074" style="stop-color:#F5F7E8;stop-opacity:0"/>
		</radialGradient>
		<path class="st10" d="M64.4,54.5c8.8,0,15.9,2,15.9,4.4c0,2.5-7.1,4.4-15.9,4.4"/>
		
			<radialGradient id="SVGID_10_" cx="2402.8328" cy="-217.3728" r="15.8644" gradientTransform="matrix(-8.050000e-002 0 0 -1 461.5576 -161.3516)" gradientUnits="userSpaceOnUse">
			<stop  offset="0" style="stop-color:#FFFFFF"/>
			<stop  offset="0.2309" style="stop-color:#FCFDF8;stop-opacity:0.7455"/>
			<stop  offset="0.9074" style="stop-color:#F5F7E8;stop-opacity:0"/>
		</radialGradient>
		<ellipse class="st11" cx="268.1" cy="56" rx="1.3" ry="15.9"/>
		
			<linearGradient id="SVGID_11_" gradientUnits="userSpaceOnUse" x1="202.3824" y1="91.6833" x2="231.3374" y2="91.6833" gradientTransform="matrix(0 1 -1 0 250.7031 -114.937)">
			<stop  offset="0" style="stop-color:#A5AAB2"/>
			<stop  offset="7.101646e-002" style="stop-color:#7C8491"/>
			<stop  offset="0.1328" style="stop-color:#5C6678"/>
			<stop  offset="0.2401" style="stop-color:#9AA4AE"/>
			<stop  offset="0.3608" style="stop-color:#E1E3E7"/>
			<stop  offset="0.3693" style="stop-color:#D8DADF"/>
			<stop  offset="0.4472" style="stop-color:#848E99"/>
			<stop  offset="0.5574" style="stop-color:#798291"/>
			<stop  offset="0.6819" style="stop-color:#898F91"/>
			<stop  offset="0.8576" style="stop-color:#B8BCC0"/>
			<stop  offset="1" style="stop-color:#D9DCE1"/>
		</linearGradient>
		<path class="st12" d="M155.1,94.3c-2-1.2-4-2.5-5.9-3.8c-2.4-1.7-5.3-3.4-9-2.9c-0.6,0.1-1.3,0.3-1.8,0.6
			c-0.7,0.4-0.8,0.9-0.8,1.2c0,0.3,0.1,0.7,0.6,1.2c0.3,0.3,0.6,0.5,0.9,0.7c1.2,0.7,2.3,1.5,3.5,2.2c2.2,1.4,4.5,2.9,6.8,4.3
			c1,0.6,1.9,1.4,3.1,2.3c0.1,0.1,0.2,0.1,0.2,0.2c0,0.1-0.1,0.1-0.2,0.2c-0.3,0.3-0.5,0.5-0.8,0.7l-1.9,1.3
			c-2.4,1.6-4.9,3.3-7.3,4.9c-1.1,0.7-2.3,1.5-3.5,2.2c-0.7,0.4-1.4,0.8-2.1,1.3c-0.6,0.4-0.7,0.8-0.7,1.1c0,0.4,0.2,0.8,0.7,1.1
			c0.2,0.2,0.5,0.3,0.9,0.4c0.2,0,0.5,0,0.7,0.1c0.8,0.1,1.6,0.2,2.5,0.1c1.6,0,2.8-0.4,3.9-1.2c0.7-0.5,1.4-0.9,2.1-1.4l0.2-0.1
			c3.2-2,6.3-3.9,9.5-5.9c1.5-0.9,2.8-0.9,4.2,0c1.3,0.8,2.5,1.6,3.8,2.4c2.2,1.4,4.5,2.9,6.6,4.3c1.3,0.9,2.6,1.6,4.2,1.6
			c1.6,0,2.9,0,4.3-0.1c0.4,0,0.8-0.2,1-0.4c0.1-0.1,0.2-0.1,0.2-0.2l0.8-0.4l-0.6-0.7c-0.1-0.1-0.1-0.2-0.2-0.2
			c-0.2-0.2-0.4-0.5-0.7-0.8c-1.3-0.8-2.6-1.7-3.9-2.5c-1.6-1-3.3-2.1-4.9-3.2c-2.1-1.4-4.2-2.9-6.4-4.5c-0.2-0.1-0.3-0.2-0.3-0.3
			c0.1-0.1,0.2-0.2,0.4-0.3c1.1-0.9,2.2-1.7,3.4-2.5c1.8-1.1,3.6-2.3,5.3-3.4c1.5-1,3-1.9,4.6-2.9c0.5-0.3,0.9-0.7,1.3-1.1
			c0.2-0.2,0.3-0.3,0.5-0.5l0.4-0.3l-0.1-0.5l0-0.1l-0.1-0.2l-0.1-0.4l-0.4-0.1c-0.2,0-0.5-0.1-0.7-0.2c-0.6-0.1-1.2-0.3-1.8-0.3
			c-1.9-0.1-4.2-0.1-6.1,1.5c-0.5,0.4-1.1,0.8-1.6,1.1c-3,1.8-5.9,3.7-8.9,5.5c-1.3,0.8-2.5,0.8-3.8,0
			C156.5,95.1,155.8,94.7,155.1,94.3z M161.3,96.2c3-1.8,5.9-3.6,8.9-5.5c0.6-0.4,1.1-0.7,1.7-1.1c1.7-1.3,3.6-1.4,5.6-1.3
			c0.8,0.1,1.6,0.3,2.4,0.5c0,0.1,0,0.2,0.1,0.3c-0.6,0.5-1.1,1-1.8,1.5c-3.3,2.1-6.6,4.2-9.9,6.3c-1.2,0.8-2.3,1.6-3.5,2.5
			c-0.5,0.4-0.7,0.6-0.7,0.9c0,0.3,0.2,0.5,0.7,0.9c2.1,1.5,4.3,3,6.4,4.5c2.9,1.9,5.9,3.8,8.8,5.7c0.3,0.2,0.5,0.6,0.7,0.8
			c-0.3,0.2-0.6,0.5-1,0.5c-1.4,0.1-2.8,0.1-4.3,0.1c-1.4,0-2.6-0.7-3.8-1.5c-3.4-2.3-7-4.5-10.4-6.8c-1.7-1.1-3.4-1.1-5,0
			c-3.2,2-6.4,3.9-9.5,5.9c-0.8,0.5-1.6,1-2.3,1.5c-1,0.8-2.2,1-3.5,1.1c-1,0-2.1-0.1-3.1-0.2c-0.2,0-0.4-0.1-0.5-0.2
			c-0.3-0.2-0.4-0.4-0.4-0.5c0-0.2,0.1-0.3,0.4-0.5c1.9-1.2,3.7-2.2,5.6-3.4c3.1-2,6.1-4.1,9.2-6.2c0.3-0.2,0.6-0.5,0.9-0.8
			c0.4-0.3,0.5-0.6,0.5-0.8c0-0.2-0.2-0.4-0.5-0.7c-1-0.8-2.1-1.6-3.2-2.4c-3.4-2.2-6.9-4.4-10.3-6.6c-0.3-0.2-0.6-0.4-0.8-0.6
			c-0.2-0.2-0.4-0.4-0.4-0.6c0-0.2,0.1-0.4,0.4-0.6c0.5-0.3,1-0.4,1.5-0.5c3.3-0.4,5.9,0.9,8.5,2.8c2.6,1.8,5.3,3.5,8,5.2
			C158.3,97.2,159.8,97.2,161.3,96.2z"/>
		<g>
			<g>
				
					<linearGradient id="SVGID_12_" gradientUnits="userSpaceOnUse" x1="150.8528" y1="72.7823" x2="196.243" y2="72.7823" gradientTransform="matrix(0 1 -1 0 250.7031 -114.937)">
					<stop  offset="0.276" style="stop-color:#466760;stop-opacity:0"/>
					<stop  offset="0.8062" style="stop-color:#B6D594;stop-opacity:0"/>
				</linearGradient>
				<path class="st13" d="M113.3,78.5H91.1V36.3h22.1v2.5H93.9v17.2h15.6v2.6H93.9V76h19.3L113.3,78.5z M65,58.8c0.9,0,1.8,0,2.6,0
					c2.2,0,4.6,0,6.8,0c0.9,0,1.2,0.2,1.6,1c1.4,2.8,2.8,5.5,4.2,8.2c1.6,3.1,3.2,6.2,4.7,9.3c0.6,1.2,1.5,1.6,2.9,1.2l0.6-0.2
					L78.5,58.6c0.1-0.1,0.3-0.1,0.4-0.1c5.2-1.3,8.9-5.7,8.9-10.9c0-0.4,0-0.9-0.1-1.3c-0.7-5.9-5.4-10-11.4-10c-3.4,0-6.8,0-10.3,0
					l-2.9,0c-0.3,0-0.5,0-0.8,0l-0.9,0.1v42.1h2.6V58.8H65z M68,56.1c-1.3,0-2.6,0-3.9,0V38.9l3,0l2.9,0c2.3,0,4.6,0,6.9,0
					c4.2,0.1,8,3.9,8.1,8.2v0.2c0,4.6-3.4,8.5-7.6,8.7C74.3,56.2,71.1,56.1,68,56.1z M294.4,36.2v42.1l-0.4,0.1c-1.8,0.5-3,0-4-1.8
					c-5.6-9.6-11.4-19.2-17-28.6l-4.5-7.5v38h-2.7v-42l0.4-0.1c2.3-0.5,2.7-0.4,3.8,1.5c5.1,8.5,10.2,17.1,15.3,25.6l5.8,9.8
					c0.2,0.3,0.4,0.7,0.6,1v-38L294.4,36.2z M212.4,36.3v2.5h-12.8v39.6h-2.7V38.9h-12.5v-2.5H212.4z M217.4,36.4v42.2h-2.6V36.4
					H217.4z M256.8,72.7c4.2-4,6.4-9.3,6.5-14.9v-0.1c0,0,0,0,0,0c0-12.1-9.4-21.7-21.5-21.8c-5.9,0-11.4,2.2-15.6,6.3
					c-4.1,4-6.3,9.3-6.3,14.9v0.1c0,12.1,9.5,21.6,21.6,21.7C247.2,79,252.7,76.8,256.8,72.7z M228.1,70.8
					c-3.6-3.5-5.5-8.3-5.5-13.4l-0.5,0h0.5c0-10.4,8.3-18.7,18.9-18.9c4.9-0.1,9.8,1.9,13.5,5.5c3.7,3.6,5.7,8.3,5.7,13.2v0.2
					c-0.1,10.6-8.4,18.8-19,18.9C236.4,76.3,231.7,74.3,228.1,70.8z M183.5,76.1c0,1.2-1.2,1.6-1.5,1.7c-6.9,2.3-13.9,1.2-19.6-2.9
					c-5.6-4-9.1-10.6-9.1-17.2c0-10.9,7.8-18.8,15.5-20.9c4.4-1.2,8.8-1.1,13.1,0.3c0.9,0.3,1.6,0.5,1.6,1.5c0,0.2,0,0.6-0.1,1
					l-0.1,0.6l-0.6-0.2c-10.3-3.4-18.4-0.8-24,7.8c-1.8,2.7-2.8,6-2.8,9.5c0,4,1.2,7.8,3.5,10.9c2.8,3.8,6.3,6.3,10.4,7.4
					c4.4,1.1,8.7,0.8,12.7-0.9l0.5-0.2l0.2,0.5C183.4,75.4,183.5,75.8,183.5,76.1z M123.8,77.2c0.9-1.6,1.9-3.1,2.9-4.7
					c0.9-1.4,1.8-2.8,2.6-4.2c0.3-0.5,0.6-0.7,1.2-0.7c1.8,0,3.5,0,5.3,0h11.8v10.9h2.6v-42l-0.4-0.1c-0.4-0.1-0.8-0.2-1.2-0.2
					l-0.2,0c-1.5-0.1-2.6,0.7-3.3,2.3c-0.3,0.6-0.6,1.2-1.1,1.7c-0.2,0.3-0.4,0.6-0.6,0.9l-2.9,4.6c-5.6,8.8-11.1,17.6-16.7,26.4
					c-0.8,1.3-1.6,2.6-2.5,3.9l-1.4,2.2l0.7,0.2C122.4,79,123.3,78.1,123.8,77.2z M131.5,64.9l16-25.2v25.2H131.5z"/>
			</g>
			<defs>
				<filter id="Adobe_OpacityMaskFilter" filterUnits="userSpaceOnUse" x="61.5" y="35.9" width="232.9" height="43.1">
					
						<feColorMatrix  type="matrix" values="-1 0 0 0 1  0 -1 0 0 1  0 0 -1 0 1  0 0 0 1 0" color-interpolation-filters="sRGB" result="source"/>
				</filter>
			</defs>
			<mask maskUnits="userSpaceOnUse" x="61.5" y="35.9" width="232.9" height="43.1" id="SVGID_13_">
				<g class="st14">
					<image style="overflow:visible;" width="238" height="48" xlink:href="17387B4.jpg"  transform="matrix(1 0 0 1 59.0653 33)">
					</image>
				</g>
			</mask>
			<g class="st15">
				<path class="st16" d="M113.3,78.5H91.1V36.3h22.1v2.5H93.9v17.2h15.6v2.6H93.9V76h19.3L113.3,78.5z M65,58.8c0.9,0,1.8,0,2.6,0
					c2.2,0,4.6,0,6.8,0c0.9,0,1.2,0.2,1.6,1c1.4,2.8,2.8,5.5,4.2,8.2c1.6,3.1,3.2,6.2,4.7,9.3c0.6,1.2,1.5,1.6,2.9,1.2l0.6-0.2
					L78.5,58.6c0.1-0.1,0.3-0.1,0.4-0.1c5.2-1.3,8.9-5.7,8.9-10.9c0-0.4,0-0.9-0.1-1.3c-0.7-5.9-5.4-10-11.4-10c-3.4,0-6.8,0-10.3,0
					l-2.9,0c-0.3,0-0.5,0-0.8,0l-0.9,0.1v42.1h2.6V58.8H65z M68,56.1c-1.3,0-2.6,0-3.9,0V38.9l3,0l2.9,0c2.3,0,4.6,0,6.9,0
					c4.2,0.1,8,3.9,8.1,8.2v0.2c0,4.6-3.4,8.5-7.6,8.7C74.3,56.2,71.1,56.1,68,56.1z M294.4,36.2v42.1l-0.4,0.1c-1.8,0.5-3,0-4-1.8
					c-5.6-9.6-11.4-19.2-17-28.6l-4.5-7.5v38h-2.7v-42l0.4-0.1c2.3-0.5,2.7-0.4,3.8,1.5c5.1,8.5,10.2,17.1,15.3,25.6l5.8,9.8
					c0.2,0.3,0.4,0.7,0.6,1v-38L294.4,36.2z M212.4,36.3v2.5h-12.8v39.6h-2.7V38.9h-12.5v-2.5H212.4z M217.4,36.4v42.2h-2.6V36.4
					H217.4z M256.8,72.7c4.2-4,6.4-9.3,6.5-14.9v-0.1c0,0,0,0,0,0c0-12.1-9.4-21.7-21.5-21.8c-5.9,0-11.4,2.2-15.6,6.3
					c-4.1,4-6.3,9.3-6.3,14.9v0.1c0,12.1,9.5,21.6,21.6,21.7C247.2,79,252.7,76.8,256.8,72.7z M228.1,70.8
					c-3.6-3.5-5.5-8.3-5.5-13.4l-0.5,0h0.5c0-10.4,8.3-18.7,18.9-18.9c4.9-0.1,9.8,1.9,13.5,5.5c3.7,3.6,5.7,8.3,5.7,13.2v0.2
					c-0.1,10.6-8.4,18.8-19,18.9C236.4,76.3,231.7,74.3,228.1,70.8z M183.5,76.1c0,1.2-1.2,1.6-1.5,1.7c-6.9,2.3-13.9,1.2-19.6-2.9
					c-5.6-4-9.1-10.6-9.1-17.2c0-10.9,7.8-18.8,15.5-20.9c4.4-1.2,8.8-1.1,13.1,0.3c0.9,0.3,1.6,0.5,1.6,1.5c0,0.2,0,0.6-0.1,1
					l-0.1,0.6l-0.6-0.2c-10.3-3.4-18.4-0.8-24,7.8c-1.8,2.7-2.8,6-2.8,9.5c0,4,1.2,7.8,3.5,10.9c2.8,3.8,6.3,6.3,10.4,7.4
					c4.4,1.1,8.7,0.8,12.7-0.9l0.5-0.2l0.2,0.5C183.4,75.4,183.5,75.8,183.5,76.1z M123.8,77.2c0.9-1.6,1.9-3.1,2.9-4.7
					c0.9-1.4,1.8-2.8,2.6-4.2c0.3-0.5,0.6-0.7,1.2-0.7c1.8,0,3.5,0,5.3,0h11.8v10.9h2.6v-42l-0.4-0.1c-0.4-0.1-0.8-0.2-1.2-0.2
					l-0.2,0c-1.5-0.1-2.6,0.7-3.3,2.3c-0.3,0.6-0.6,1.2-1.1,1.7c-0.2,0.3-0.4,0.6-0.6,0.9l-2.9,4.6c-5.6,8.8-11.1,17.6-16.7,26.4
					c-0.8,1.3-1.6,2.6-2.5,3.9l-1.4,2.2l0.7,0.2C122.4,79,123.3,78.1,123.8,77.2z M131.5,64.9l16-25.2v25.2H131.5z"/>
			</g>
		</g>
		<g>
			<g>
				
					<linearGradient id="SVGID_14_" gradientUnits="userSpaceOnUse" x1="202.3843" y1="8.2188" x2="228.6321" y2="8.2188" gradientTransform="matrix(0 1 -1 0 250.7031 -114.937)">
					<stop  offset="0.276" style="stop-color:#466760;stop-opacity:0"/>
					<stop  offset="0.8062" style="stop-color:#B6D594;stop-opacity:0"/>
				</linearGradient>
				<path class="st17" d="M296.1,89.3l-0.6-0.6c0-0.1-0.1-0.1-0.1-0.2c-0.2-0.2-0.4-0.6-0.8-0.7c-0.7-0.2-1.6-0.4-2.5-0.4
					c-4.8,0-9.7,0-14.4,0l-4.2,0l-4.3,0c-4.7,0-9.5,0-14.2,0c-0.9,0-1.8,0.2-2.6,0.4l-0.2,0c-0.6,0.1-1,0.8-1.1,1.2l0,0l0,0
					c0,0.6,0.6,1.1,1.1,1.2c0.7,0.2,1.4,0.3,2.1,0.3c1.5,0,3.1,0,4.6,0c2.5,0,5.1,0,7.6,0c0.6,0,1.2,0.2,1.9,0.4
					c0.2,0.1,0.4,0.1,0.5,0.2c0.1,0,0.2,0.1,0.2,0.5c0,3.4,0,6.8,0,10.1l0,4.5l0,4.5c0,1.5,0.4,2,1.8,2.4c1.4,0.4,2.9,0.4,4.4,0.1
					c1.9-0.4,2.3-0.9,2.3-2.8l0-3.8l0-3.8c0-3.7,0-7.3,0-11c0-0.4,0.1-0.5,0.3-0.6c0.9-0.4,1.6-0.6,2.4-0.6c3.9,0,7.9,0,12.2,0
					c0.6,0,1.3-0.1,1.8-0.2c0.4-0.1,0.6-0.4,0.9-0.6c0.1-0.1,0.1-0.1,0.2-0.2L296.1,89.3L296.1,89.3z M248,89.9c0-1-0.5-1.7-1.5-2
					c-1.7-0.5-3.4-0.6-5.1-0.2c-1.6,0.4-2,0.9-2,2.6v20.6c0,1.2,0.3,2,1.7,2.3c1.8,0.5,3.6,0.5,5.4-0.1c1-0.3,1.5-1,1.5-2
					c0-1.7,0-3.4,0-5.1l0-2.7l0-2.7l0-2.7l0-2.7C247.9,93,248,91.4,248,89.9L248,89.9L248,89.9L248,89.9z M235.1,89.5
					c0-0.7-0.6-1.3-1.4-1.5c-0.8-0.2-1.7-0.3-2.7-0.4c-9.1-0.2-16.5-0.1-23.3,0.2c-3.7,0.2-7.5,1.1-11.5,2.8
					c-3.2,1.3-5.5,3.6-6.8,6.8c-0.3,0.8-0.5,1.5-0.5,2.2c0,2,0,3.9,0,5.9v0.6v0.6c0,1.5,0,3,0,4.5c0,1,0.5,1.6,1.3,1.9
					c1.9,0.7,3.9,0.7,5.8,0c0.6-0.2,1.4-0.7,1.4-2c0-1.4,0-2.9,0-4.3v-0.7l0-0.7c0-1.2,0-2.5,0-3.7c0,0,0,0,0,0c0-0.2,0-0.2,0.1-0.3
					c0.9-0.5,1.7-0.8,2.6-0.7c2.9,0,5.9,0,8.8,0l2.8,0c1.1,0,2.2,0,3.3,0c2.5,0,5.1,0,7.6,0c0.7,0,1.4-0.1,2.1-0.3
					c0.5-0.1,1-0.7,1-1.2c0-0.5-0.5-1.1-1-1.2c-0.6-0.1-1.2-0.3-1.8-0.3c-3.7,0-7.5,0-11.2,0c-3.7,0-7.4,0-11.2,0
					c-0.6,0-1.1-0.1-1.6-0.2c-0.3-0.1-0.8-0.3-0.8-0.6c0-0.2,0.1-0.4,0.3-0.6c0.4-0.6,1-1.2,1.5-1.5c3-2,6.4-3.1,10.2-3.1
					c4.2,0,8.4,0,12.5,0c2.9,0,5.7,0,8.6,0c0.8,0,1.6-0.2,2.3-0.4c0.6-0.2,1.2-0.8,1.3-1.5C235.1,89.7,235.1,89.6,235.1,89.5
					L235.1,89.5z"/>
			</g>
			<defs>
				<filter id="Adobe_OpacityMaskFilter_1_" filterUnits="userSpaceOnUse" x="188.8" y="87.4" width="107.3" height="26.2">
					
						<feColorMatrix  type="matrix" values="-1 0 0 0 1  0 -1 0 0 1  0 0 -1 0 1  0 0 0 1 0" color-interpolation-filters="sRGB" result="source"/>
				</filter>
			</defs>
			<mask maskUnits="userSpaceOnUse" x="188.8" y="87.4" width="107.3" height="26.2" id="SVGID_15_">
				<g class="st18">
					<image style="overflow:visible;" width="113" height="31" xlink:href="17387B5.jpg"  transform="matrix(1 0 0 1 186.0653 85)">
					</image>
				</g>
			</mask>
			<g class="st19">
				<path class="st16" d="M296.1,89.3l-0.6-0.6c0-0.1-0.1-0.1-0.1-0.2c-0.2-0.2-0.4-0.6-0.8-0.7c-0.7-0.2-1.6-0.4-2.5-0.4
					c-4.8,0-9.7,0-14.4,0l-4.2,0l-4.3,0c-4.7,0-9.5,0-14.2,0c-0.9,0-1.8,0.2-2.6,0.4l-0.2,0c-0.6,0.1-1,0.8-1.1,1.2l0,0l0,0
					c0,0.6,0.6,1.1,1.1,1.2c0.7,0.2,1.4,0.3,2.1,0.3c1.5,0,3.1,0,4.6,0c2.5,0,5.1,0,7.6,0c0.6,0,1.2,0.2,1.9,0.4
					c0.2,0.1,0.4,0.1,0.5,0.2c0.1,0,0.2,0.1,0.2,0.5c0,3.4,0,6.8,0,10.1l0,4.5l0,4.5c0,1.5,0.4,2,1.8,2.4c1.4,0.4,2.9,0.4,4.4,0.1
					c1.9-0.4,2.3-0.9,2.3-2.8l0-3.8l0-3.8c0-3.7,0-7.3,0-11c0-0.4,0.1-0.5,0.3-0.6c0.9-0.4,1.6-0.6,2.4-0.6c3.9,0,7.9,0,12.2,0
					c0.6,0,1.3-0.1,1.8-0.2c0.4-0.1,0.6-0.4,0.9-0.6c0.1-0.1,0.1-0.1,0.2-0.2L296.1,89.3L296.1,89.3z M248,89.9c0-1-0.5-1.7-1.5-2
					c-1.7-0.5-3.4-0.6-5.1-0.2c-1.6,0.4-2,0.9-2,2.6v20.6c0,1.2,0.3,2,1.7,2.3c1.8,0.5,3.6,0.5,5.4-0.1c1-0.3,1.5-1,1.5-2
					c0-1.7,0-3.4,0-5.1l0-2.7l0-2.7l0-2.7l0-2.7C247.9,93,248,91.4,248,89.9L248,89.9L248,89.9L248,89.9z M235.1,89.5
					c0-0.7-0.6-1.3-1.4-1.5c-0.8-0.2-1.7-0.3-2.7-0.4c-9.1-0.2-16.5-0.1-23.3,0.2c-3.7,0.2-7.5,1.1-11.5,2.8
					c-3.2,1.3-5.5,3.6-6.8,6.8c-0.3,0.8-0.5,1.5-0.5,2.2c0,2,0,3.9,0,5.9v0.6v0.6c0,1.5,0,3,0,4.5c0,1,0.5,1.6,1.3,1.9
					c1.9,0.7,3.9,0.7,5.8,0c0.6-0.2,1.4-0.7,1.4-2c0-1.4,0-2.9,0-4.3v-0.7l0-0.7c0-1.2,0-2.5,0-3.7c0,0,0,0,0,0c0-0.2,0-0.2,0.1-0.3
					c0.9-0.5,1.7-0.8,2.6-0.7c2.9,0,5.9,0,8.8,0l2.8,0c1.1,0,2.2,0,3.3,0c2.5,0,5.1,0,7.6,0c0.7,0,1.4-0.1,2.1-0.3
					c0.5-0.1,1-0.7,1-1.2c0-0.5-0.5-1.1-1-1.2c-0.6-0.1-1.2-0.3-1.8-0.3c-3.7,0-7.5,0-11.2,0c-3.7,0-7.4,0-11.2,0
					c-0.6,0-1.1-0.1-1.6-0.2c-0.3-0.1-0.8-0.3-0.8-0.6c0-0.2,0.1-0.4,0.3-0.6c0.4-0.6,1-1.2,1.5-1.5c3-2,6.4-3.1,10.2-3.1
					c4.2,0,8.4,0,12.5,0c2.9,0,5.7,0,8.6,0c0.8,0,1.6-0.2,2.3-0.4c0.6-0.2,1.2-0.8,1.3-1.5C235.1,89.7,235.1,89.6,235.1,89.5
					L235.1,89.5z"/>
			</g>
		</g>
		
			<radialGradient id="SVGID_16_" cx="191.6989" cy="129.0988" r="15.8619" gradientTransform="matrix(0 0.7182 -0.6902 0 240.943 -78.6914)" gradientUnits="userSpaceOnUse">
			<stop  offset="0" style="stop-color:#FFFFFF"/>
			<stop  offset="0.2309" style="stop-color:#FCFDF8;stop-opacity:0.7455"/>
			<stop  offset="0.9074" style="stop-color:#F5F7E8;stop-opacity:0"/>
		</radialGradient>
		<ellipse class="st20" cx="151.8" cy="59" rx="10.9" ry="11.4"/>
		
			<radialGradient id="SVGID_17_" cx="191.6989" cy="36.8889" r="15.8622" gradientTransform="matrix(0 0.7182 -1 0 250.7031 -78.6914)" gradientUnits="userSpaceOnUse">
			<stop  offset="0" style="stop-color:#FFFFFF"/>
			<stop  offset="0.2309" style="stop-color:#FCFDF8;stop-opacity:0.7455"/>
			<stop  offset="0.9074" style="stop-color:#F5F7E8;stop-opacity:0"/>
		</radialGradient>
		<ellipse class="st21" cx="213.8" cy="59" rx="15.9" ry="11.4"/>
	</g>
</g>
</svg>
